# xmcd CD database file
#
# Track frame offsets:
#	150
#	12180
#	18740
#	32886
#	48053
#	61236
#	63486
#	75340
#	89828
#	101917
#	115559
#	118827
#	131051
#	142197
#	153402
#	164729
#	170306
#	182361
#	194438
#	208317
#	219204
#	225116
#	236739
#	250643
#	262852
#	264421
#	278958
#	291421
#	301830
#	316307
#
# Disc length: 4262 seconds
#
# Revision: 2
# Processed by: cddbd v1.4b41PL1 Copyright (c) Steve Scherf et al.
# Submitted via: Feurio! 1.60 - http://www.feurio.com
#
DISCID=aa10a41e,c210a41e
DTITLE=Various Artist - BLUE MONDAY - Pfingsten Gospel Special
DYEAR=1900
DGENRE=
TTITLE0=??? - BLUE MONDAY
TTITLE1=??? - Ed Ward
TTITLE2=??? - TRAIN YOUR CHILD
TTITLE3=??? - WHAT ARE THEY DOIN' IN HEAVEN TODAY
TTITLE4=??? - I HAD A GOOD FATHER AND MOTHER
TTITLE5=??? - Ed Ward
TTITLE6=??? - EVERBODY OUGHTA PRAY SOMETIME
TTITLE7=??? - THE KING OF KINGS
TTITLE8=??? - HONEY IN THE ROCK
TTITLE9=??? - LORD, I WISH I COULD SEE
TTITLE10=??? - Ed Ward
TTITLE11=??? - GET ON BORD LITTLE CHILDREN
TTITLE12=??? - DON'T LEAVE, THIS MAY BE THE LAST TIME
TTITLE13=??? - THOSE CHIMING BELLS
TTITLE14=??? - JESUS IS THE FIRST LINE OF DEFENCE
TTITLE15=??? - Ed Ward
TTITLE16=??? - DIG A LITTLE DEEPER
TTITLE17=??? - SOMETIMES
TTITLE18=??? - I JOHN SAW
TTITLE19=??? - YIELD NOT TO TEMPTATION
TTITLE20=??? - Ed Ward
TTITLE21=??? - LOVE LIKE A RIVER
TTITLE22=??? - WALK IN THE LIGHT
TTITLE23=??? - I TELL IT, WHERE EVER I GO
TTITLE24=??? - Ed Ward
TTITLE25=??? - HE'S MY RUG
TTITLE26=??? - MUST JESUS BEAR THIS CROSS ALONE?
TTITLE27=??? - GOD IS STANDING BY
TTITLE28=??? - OH, WHAT A MEETING
TTITLE29=??? - Ed Ward
EXTD=
EXTT0=
EXTT1=
EXTT2=
EXTT3=
EXTT4=
EXTT5=
EXTT6=
EXTT7=
EXTT8=
EXTT9=
EXTT10=
EXTT11=
EXTT12=
EXTT13=
EXTT14=
EXTT15=
EXTT16=
EXTT17=
EXTT18=
EXTT19=
EXTT20=
EXTT21=
EXTT22=
EXTT23=
EXTT24=
EXTT25=
EXTT26=
EXTT27=
EXTT28=
EXTT29=
PLAYORDER=
